<?xml version="1.0" encoding="utf-8"?>
<!-- Generator: Adobe Illustrator 18.1.1, SVG Export Plug-In . SVG Version: 6.00 Build 0)  -->
<svg version="1.1" id="Layer_1" xmlns="http://www.w3.org/2000/svg" xmlns:xlink="http://www.w3.org/1999/xlink" x="0px" y="0px"
	 viewBox="0 0 285.3 201.7" enable-background="new 0 0 285.3 201.7" xml:space="preserve">
<g>
	<defs>
		<rect id="SVGID_1_" width="285.3" height="201.7"/>
	</defs>
	<clipPath id="SVGID_2_">
		<use xlink:href="#SVGID_1_"  overflow="visible"/>
	</clipPath>
	<path clip-path="url(#SVGID_2_)" fill="#8000ff" d="M99.5,76.2c-2.1-1.6-5-1.3-8.1,1.6c-0.1,0.1-0.3,0.2-0.4,0.2
		c-0.9,0.5-1.5,0.7-2.6,0.9c-0.2,0-0.2,0.2,0,0.3c1.3,0.5,1.9,0.8,3.7,1c0.3,0,0.7,0.1,1,0.2c0.9,0.3,1.6,0.9,2.1,1.5
		c0.3-0.7,0.8-1.3,1.3-1.8l3.6-3.6C99.8,76.5,99.7,76.3,99.5,76.2 M95.2,77.3c-0.1,0.1-0.2,0.2-0.4,0.2c-0.3,0.1-0.8,0-1.1-0.1
		c0,0,0-0.1,0-0.1c0.1-0.2,0.6-0.4,0.9-0.5c0.1,0,0.3,0,0.4,0C95.3,76.8,95.4,77.1,95.2,77.3"/>
	<path clip-path="url(#SVGID_2_)" fill="#8000ff" d="M110.8,66.4L96.7,80.6c-2.6,2.6-2.6,6.7,0,9.3l14.1-14.1
		C113.4,73.2,113.4,69,110.8,66.4"/>
	<path clip-path="url(#SVGID_2_)" fill="#8000ff" d="M112.5,74.8l-11.1,11.1c-2.3,2.3-2.3,6.1,0,8.4l0.5,0.5
		L113,83.7c2.3-2.3,2.3-6.1,0-8.4L112.5,74.8z"/>
	<path clip-path="url(#SVGID_2_)" fill="#8000ff" d="M110.6,86.9l-5.3,5.3c-1.7,1.7-1.7,4.5,0,6.2l1.5,1.5
		l5.3-5.3c1.7-1.7,1.7-4.5,0-6.2L110.6,86.9z"/>
	<path clip-path="url(#SVGID_2_)" fill="#8000ff" d="M125.2,76.1c0-0.7,0.2-1.2,0.5-1.5c0.3-0.3,0.8-0.5,1.4-0.5
		c0.3,0,0.6,0,0.9,0.1c0.3,0.1,0.6,0.2,0.9,0.4l1.5-2.7c-1.1-0.8-2.4-1.3-3.9-1.3c-1,0-1.9,0.2-2.7,0.6c-0.8,0.4-1.5,1-2.1,1.8
		c-0.5,0.8-0.8,1.8-0.8,3v0.7h-2.4v3.5h2.4v10.1h4.4V80.3h3.7v-3.5h-3.7V76.1z"/>
	<polygon clip-path="url(#SVGID_2_)" fill="#8000ff" points="131.6,72 131.6,90.4 135.9,90.4 135.9,72 	"/>
	<polygon clip-path="url(#SVGID_2_)" fill="#8000ff" points="148.7,76.8 146.9,81.1 145.3,85.6 143.9,81.1 
		142.3,76.8 137.6,76.8 142.9,90.3 141,94.6 145.6,94.6 153.4,76.8 	"/>
	<path clip-path="url(#SVGID_2_)" fill="#8000ff" d="M161.8,76.1c0-0.7,0.2-1.2,0.5-1.5c0.3-0.3,0.8-0.5,1.4-0.5
		c0.3,0,0.6,0,0.9,0.1c0.3,0.1,0.6,0.2,0.9,0.4l1.5-2.7c-1.1-0.8-2.4-1.3-3.9-1.3c-1,0-1.9,0.2-2.7,0.6c-0.8,0.4-1.5,1-2.1,1.8
		c-0.5,0.8-0.8,1.8-0.8,3v0.7H155v3.5h2.4v10.1h4.4V80.3h3.7v-3.5h-3.7V76.1z"/>
	<path clip-path="url(#SVGID_2_)" fill="#8000ff" d="M171.8,72.1c-0.5-0.4-1.1-0.7-1.8-0.7
		c-0.7,0-1.4,0.2-1.8,0.7c-0.5,0.4-0.7,1-0.7,1.7c0,0.7,0.2,1.2,0.7,1.7c0.5,0.4,1.1,0.7,1.8,0.7c0.8,0,1.4-0.2,1.8-0.7
		c0.5-0.4,0.7-1,0.7-1.7C172.5,73.2,172.2,72.6,171.8,72.1"/>
	<rect x="167.8" y="76.8" clip-path="url(#SVGID_2_)" fill="#8000ff" width="4.3" height="13.6"/>
	<path clip-path="url(#SVGID_2_)" fill="#8000ff" d="M195.5,78c-1-1-2.3-1.5-4.1-1.5c-2,0-3.6,0.7-4.7,2.1
		c-0.4-0.7-1-1.2-1.7-1.6c-0.7-0.4-1.5-0.6-2.4-0.6c-0.8,0-1.5,0.2-2.2,0.5c-0.7,0.3-1.2,0.8-1.7,1.4l-0.2-1.5h-3.8v13.6h4.3V83
		c0-0.8,0.2-1.5,0.7-2c0.5-0.5,1-0.8,1.8-0.8c0.7,0,1.2,0.2,1.6,0.7c0.4,0.5,0.6,1.1,0.6,1.9v7.7h4.3V83c0-0.8,0.2-1.5,0.7-2
		c0.4-0.5,1-0.8,1.8-0.8c0.7,0,1.2,0.2,1.6,0.7s0.6,1.1,0.6,1.9v7.7h4.3v-8.2C197,80.4,196.5,79,195.5,78"/>
	<path clip-path="url(#SVGID_2_)" fill="#8000ff" d="M158.8,93c0,0,0-0.1,0-0.1C158.8,93,158.7,93.1,158.8,93
		c0,0.1,0,0.1,0,0.1c0,0.1,0,0.2,0,0.3v0.1h1.1v0.6h-1.1v3.1h-0.6v-3.1h-0.7v-0.6h0.7v-0.2c0-0.4,0.1-0.7,0.4-1
		c0.2-0.2,0.6-0.4,1-0.4c0.3,0,0.6,0,0.8,0.2v0.6c-0.2-0.1-0.5-0.2-0.8-0.2C159.1,92.6,158.9,92.8,158.8,93"/>
	<path clip-path="url(#SVGID_2_)" fill="#8000ff" d="M158.8,92.9c0,0,0,0.1,0,0.1c0,0,0,0.1,0,0.1
		C158.7,93.1,158.8,93,158.8,92.9"/>
	<path clip-path="url(#SVGID_2_)" fill="#8000ff" d="M158.8,92.8c0,0,0,0.1-0.1,0.1
		C158.8,92.9,158.8,92.9,158.8,92.8"/>
	<rect x="158.7" y="94.1" clip-path="url(#SVGID_2_)" fill="#8000ff" width="0" height="2.8"/>
	<path clip-path="url(#SVGID_2_)" fill="#8000ff" d="M158.8,92.8c0,0,0,0.1-0.1,0.1
		C158.8,92.9,158.8,92.9,158.8,92.8"/>
	<path clip-path="url(#SVGID_2_)" fill="#8000ff" d="M158.8,92.9c0,0,0,0.1,0,0.1c0,0.1,0,0.2,0,0.4v0.1h0v-0.2
		c0-0.1,0-0.2,0-0.3c0,0,0,0,0,0C158.7,93.1,158.8,93,158.8,92.9"/>
	<polygon clip-path="url(#SVGID_2_)" fill="#8000ff" points="164.7,93.7 163.4,96.8 163,95.7 162.1,93.7 
		161.8,93.7 163.3,97.1 162.5,98.8 162.8,98.8 165,93.7 	"/>
	<path clip-path="url(#SVGID_2_)" fill="#8000ff" d="M162.9,98.9h-0.6l0.8-1.8l-1.5-3.5h0.6l1.2,2.8l1.2-2.8h0.6
		L162.9,98.9z M162.7,98.6L162.7,98.6l0.3-0.8L162.7,98.6z M162,93.9l0.2,0.5L162,93.9z"/>
	<path clip-path="url(#SVGID_2_)" fill="#8000ff" d="M167.5,97.1h0.3v-3.4h-0.3V97.1z M167.9,92.5
		c0,0-0.1-0.1-0.2-0.1c-0.1,0-0.1,0-0.2,0.1c0,0-0.1,0.1-0.1,0.2c0,0.1,0,0.1,0.1,0.2c0,0,0.1,0.1,0.2,0.1c0.1,0,0.1,0,0.2-0.1
		c0.1,0,0.1-0.1,0.1-0.2C168,92.6,167.9,92.5,167.9,92.5"/>
	<path clip-path="url(#SVGID_2_)" fill="#8000ff" d="M168,97.3h-0.6v-3.7h0.6V97.3z M167.7,93.1
		c-0.1,0-0.2,0-0.3-0.1c-0.1-0.1-0.1-0.2-0.1-0.3c0-0.1,0-0.2,0.1-0.3c0.2-0.2,0.4-0.2,0.6,0c0.1,0.1,0.1,0.2,0.1,0.3
		c0,0.1,0,0.2-0.1,0.3C167.9,93,167.8,93.1,167.7,93.1 M167.7,92.5C167.7,92.5,167.6,92.6,167.7,92.5c-0.1,0.1-0.1,0.1-0.1,0.1
		c0,0,0,0.1,0,0.1c0,0,0,0,0.1,0c0,0,0.1,0,0.1,0c0,0,0,0,0-0.1S167.8,92.6,167.7,92.5L167.7,92.5C167.8,92.6,167.7,92.5,167.7,92.5
		"/>
	<path clip-path="url(#SVGID_2_)" fill="#8000ff" d="M171.6,94.1c-0.3-0.3-0.6-0.4-1.1-0.4
		c-0.3,0-0.5,0.1-0.8,0.2c-0.2,0.1-0.4,0.3-0.6,0.5v-0.7H169v3.4h0.3v-1.9c0-0.2,0.1-0.5,0.2-0.7c0.1-0.2,0.3-0.4,0.5-0.5
		c0.2-0.1,0.4-0.2,0.7-0.2c0.4,0,0.7,0.1,0.9,0.3c0.2,0.2,0.3,0.5,0.3,0.9v1.9h0.3v-2C172,94.7,171.9,94.3,171.6,94.1"/>
	<path clip-path="url(#SVGID_2_)" fill="#8000ff" d="M172.2,97.3h-0.6v-2.1c0-0.4-0.1-0.6-0.3-0.8
		c-0.2-0.2-0.4-0.3-0.8-0.3c-0.2,0-0.4,0.1-0.6,0.1c-0.2,0.1-0.3,0.2-0.4,0.4c-0.1,0.2-0.1,0.4-0.1,0.6v2h-0.6v-3.7h0.6V94
		c0.1-0.1,0.2-0.2,0.3-0.2c0.3-0.1,0.5-0.2,0.9-0.2c0.5,0,0.9,0.1,1.2,0.4c0.3,0.3,0.4,0.7,0.4,1.2V97.3z M171.9,97L171.9,97l0-1.8
		c0-0.4-0.1-0.8-0.3-1l0,0c0,0-0.1-0.1-0.1-0.1c0,0,0.1,0.1,0.1,0.1c0.2,0.2,0.3,0.6,0.3,1V97z M169.1,94.9v0.3c0-0.1,0-0.3,0.1-0.4
		L169.1,94.9z"/>
	<path clip-path="url(#SVGID_2_)" fill="#8000ff" d="M179.9,94.1c-0.2-0.3-0.6-0.4-1-0.4c-0.3,0-0.5,0.1-0.8,0.2
		c-0.2,0.2-0.4,0.4-0.5,0.6c-0.1-0.3-0.2-0.5-0.5-0.6c-0.2-0.1-0.5-0.2-0.8-0.2c-0.2,0-0.5,0.1-0.7,0.2c-0.2,0.1-0.4,0.3-0.5,0.5
		v-0.6H175v3.4h0.3v-1.9c0-0.2,0-0.5,0.2-0.6c0.1-0.2,0.2-0.3,0.4-0.4c0.2-0.1,0.4-0.2,0.6-0.2c0.4,0,0.6,0.1,0.8,0.3
		c0.2,0.2,0.3,0.5,0.3,0.9v2h0.3v-1.9c0-0.2,0-0.5,0.1-0.6c0.1-0.2,0.2-0.3,0.4-0.4c0.2-0.1,0.4-0.2,0.6-0.2c0.3,0,0.6,0.1,0.8,0.3
		c0.2,0.2,0.3,0.5,0.3,0.9v2h0.3v-2C180.2,94.7,180.1,94.3,179.9,94.1"/>
	<path clip-path="url(#SVGID_2_)" fill="#8000ff" d="M180.4,97.3h-0.6v-2.1c0-0.4-0.1-0.6-0.2-0.8
		c-0.2-0.2-0.4-0.3-0.7-0.3c-0.2,0-0.4,0-0.5,0.1c-0.2,0.1-0.3,0.2-0.4,0.4c-0.1,0.2-0.1,0.4-0.1,0.6v2.1h-0.6v-2.1
		c0-0.3-0.1-0.6-0.2-0.8c-0.1-0.2-0.4-0.3-0.7-0.3c-0.2,0-0.4,0-0.5,0.1c-0.2,0.1-0.3,0.2-0.4,0.4c-0.1,0.2-0.1,0.4-0.1,0.6v2.1
		h-0.6v-3.7h0.6v0.4c0.1-0.1,0.2-0.2,0.3-0.2c0.2-0.1,0.5-0.2,0.7-0.2c0.3,0,0.6,0.1,0.9,0.2c0.2,0.1,0.3,0.3,0.4,0.4
		c0.1-0.2,0.3-0.3,0.4-0.4c0.3-0.2,0.5-0.2,0.8-0.2c0.4,0,0.8,0.2,1.1,0.4l0,0c0.3,0.3,0.4,0.7,0.4,1.2V97.3z M180.1,97L180.1,97
		l0-1.8c0-0.3-0.1-0.6-0.2-0.8c0.1,0.2,0.2,0.5,0.2,0.8V97z M177.6,94.8c0,0.1,0,0.2,0,0.3C177.6,95,177.6,94.9,177.6,94.8l0,0.1
		L177.6,94.8z M175.1,94.9v0.2C175.1,95,175.1,94.9,175.1,94.9L175.1,94.9z"/>
	<path clip-path="url(#SVGID_2_)" fill="#8000ff" d="M181.3,97.1h0.3v-3.4h-0.3V97.1z M181.7,92.5
		c0,0-0.1-0.1-0.2-0.1c-0.1,0-0.1,0-0.2,0.1c0,0-0.1,0.1-0.1,0.2c0,0.1,0,0.1,0.1,0.2c0,0,0.1,0.1,0.2,0.1c0.1,0,0.1,0,0.2-0.1
		c0.1,0,0.1-0.1,0.1-0.2C181.7,92.6,181.7,92.5,181.7,92.5"/>
	<path clip-path="url(#SVGID_2_)" fill="#8000ff" d="M181.8,97.3h-0.6v-3.7h0.6V97.3z M181.5,93.1
		c-0.1,0-0.2,0-0.3-0.1c-0.1-0.1-0.1-0.2-0.1-0.3c0-0.1,0-0.2,0.1-0.3c0.2-0.2,0.4-0.2,0.6,0c0.1,0.1,0.1,0.2,0.1,0.3
		c0,0.1,0,0.2-0.1,0.3C181.7,93,181.6,93.1,181.5,93.1 M181.5,92.5C181.4,92.5,181.4,92.6,181.5,92.5c-0.1,0.1-0.1,0.1-0.1,0.1
		c0,0,0,0.1,0,0.1c0,0,0,0,0.1,0c0,0,0.1,0,0.1,0c0,0,0,0,0-0.1S181.6,92.6,181.5,92.5L181.5,92.5C181.5,92.6,181.5,92.5,181.5,92.5
		"/>
	<path clip-path="url(#SVGID_2_)" fill="#8000ff" d="M185.4,94.1c-0.3-0.3-0.6-0.4-1.1-0.4
		c-0.3,0-0.5,0.1-0.8,0.2c-0.2,0.1-0.4,0.3-0.5,0.5v-0.7h-0.3v3.4h0.3v-1.9c0-0.2,0.1-0.5,0.2-0.7c0.1-0.2,0.3-0.4,0.5-0.5
		c0.2-0.1,0.4-0.2,0.7-0.2c0.4,0,0.7,0.1,0.9,0.3c0.2,0.2,0.3,0.5,0.3,0.9v1.9h0.3v-2C185.8,94.7,185.7,94.3,185.4,94.1"/>
	<path clip-path="url(#SVGID_2_)" fill="#8000ff" d="M186,97.3h-0.6v-2.1c0-0.4-0.1-0.6-0.3-0.8
		c-0.2-0.2-0.4-0.3-0.8-0.3c-0.2,0-0.4,0.1-0.6,0.1c-0.2,0.1-0.3,0.2-0.4,0.4c-0.1,0.2-0.1,0.4-0.1,0.6v2h-0.6v-3.7h0.6V94
		c0.1-0.1,0.2-0.2,0.3-0.2c0.3-0.1,0.6-0.2,0.9-0.2c0.5,0,0.9,0.1,1.2,0.4c0.3,0.3,0.4,0.7,0.4,1.2V97.3z M185.7,97L185.7,97l0-1.8
		c0-0.4-0.1-0.8-0.3-1l0,0c0,0-0.1-0.1-0.1-0.1c0,0,0.1,0.1,0.1,0.1c0.2,0.2,0.3,0.6,0.3,1V97z M182.9,94.9v0.3c0-0.1,0-0.3,0.1-0.4
		L182.9,94.9z"/>
	<path clip-path="url(#SVGID_2_)" fill="#8000ff" d="M189.6,93.7v1.9c0,0.2-0.1,0.5-0.2,0.7
		c-0.1,0.2-0.3,0.3-0.5,0.5c-0.2,0.1-0.4,0.2-0.7,0.2c-0.4,0-0.6-0.1-0.8-0.3c-0.2-0.2-0.3-0.5-0.3-0.9v-2h-0.3v2
		c0,0.5,0.1,0.8,0.4,1.1c0.3,0.3,0.6,0.4,1,0.4c0.3,0,0.5-0.1,0.8-0.2c0.2-0.1,0.4-0.3,0.5-0.5v0.7h0.3v-3.4H189.6z"/>
	<path clip-path="url(#SVGID_2_)" fill="#8000ff" d="M188.3,97.3c-0.5,0-0.9-0.1-1.1-0.4
		c-0.3-0.3-0.4-0.7-0.4-1.2v-2.1h0.6v2.1c0,0.3,0.1,0.6,0.3,0.8c0.2,0.2,0.4,0.3,0.7,0.3c0.2,0,0.4,0,0.6-0.2
		c0.2-0.1,0.3-0.2,0.4-0.4c0.1-0.2,0.1-0.4,0.1-0.6v-2h0.6v3.7h-0.6v-0.4c-0.1,0.1-0.2,0.2-0.3,0.2
		C188.9,97.2,188.6,97.3,188.3,97.3 M187,96c0,0.3,0.1,0.5,0.3,0.7c0.1,0.1,0.1,0.1,0.2,0.1c-0.1,0-0.1-0.1-0.2-0.1
		C187.2,96.5,187.1,96.3,187,96 M189.7,95.7c0,0.1,0,0.2-0.1,0.4l0.1-0.1V95.7z"/>
	<path clip-path="url(#SVGID_2_)" fill="#8000ff" d="M192.9,96.8c-0.1,0-0.2,0.1-0.3,0.1c-0.1,0-0.2,0-0.3,0
		c-0.3,0-0.4-0.1-0.5-0.2c-0.1-0.1-0.1-0.3-0.1-0.6V94h1.2v-0.3h-1.2v-1l-0.3,0v1h-0.7V94h0.7v2.1c0,0.4,0.1,0.6,0.2,0.8
		c0.1,0.2,0.4,0.3,0.7,0.3c0.2,0,0.4-0.1,0.7-0.2L192.9,96.8z"/>
	<path clip-path="url(#SVGID_2_)" fill="#8000ff" d="M192.4,97.3c-0.4,0-0.7-0.1-0.8-0.3
		c-0.2-0.2-0.2-0.5-0.2-0.9v-2h-0.7v-0.6h0.7v-1l0.6,0v1h1.2v0.6h-1.2v2c0,0.3,0.1,0.5,0.1,0.5c0.1,0.1,0.2,0.1,0.4,0.1
		c0.1,0,0.1,0,0.2,0c0.1,0,0.2-0.1,0.3-0.1l0.1-0.1l0.2,0.5l-0.1,0.1C192.8,97.3,192.6,97.3,192.4,97.3 M191.6,96.5
		c0,0.1,0.1,0.2,0.1,0.3c0,0,0,0,0.1,0.1c0,0-0.1-0.1-0.1-0.1C191.7,96.7,191.6,96.6,191.6,96.5"/>
	<path clip-path="url(#SVGID_2_)" fill="#8000ff" d="M196.9,95.3c0-0.3-0.1-0.6-0.2-0.9c-0.1-0.3-0.3-0.5-0.6-0.6
		c-0.3-0.1-0.6-0.2-0.9-0.2c-0.3,0-0.6,0.1-0.9,0.2c-0.3,0.2-0.5,0.4-0.6,0.6c-0.1,0.3-0.2,0.6-0.2,0.9c0,0.3,0.1,0.6,0.2,0.9
		c0.2,0.3,0.4,0.5,0.6,0.6c0.3,0.2,0.6,0.2,0.9,0.2c0.3,0,0.6-0.1,0.8-0.2c0.3-0.1,0.5-0.3,0.6-0.5l-0.2-0.2
		c-0.1,0.2-0.3,0.3-0.5,0.4c-0.2,0.1-0.5,0.2-0.7,0.2c-0.4,0-0.7-0.1-1-0.4c-0.3-0.3-0.4-0.6-0.4-1h3.1
		C196.9,95.5,196.9,95.4,196.9,95.3 M193.7,95.3c0-0.4,0.2-0.7,0.4-1c0.3-0.2,0.6-0.4,1-0.4c0.3,0,0.5,0.1,0.7,0.2
		c0.2,0.1,0.4,0.3,0.5,0.5c0.1,0.2,0.2,0.4,0.2,0.7H193.7z"/>
	<path clip-path="url(#SVGID_2_)" fill="#8000ff" d="M195.2,97.3c-0.4,0-0.7-0.1-1-0.3c-0.3-0.2-0.5-0.4-0.7-0.7
		c-0.2-0.3-0.2-0.6-0.2-1c0-0.4,0.1-0.7,0.2-1c0.2-0.3,0.4-0.5,0.7-0.7c0.3-0.2,0.6-0.2,1-0.2c0.4,0,0.7,0.1,1,0.2
		c0.3,0.1,0.5,0.4,0.7,0.6c0.2,0.3,0.2,0.6,0.2,0.9c0,0.1,0,0.2,0,0.2l0,0.1h-3.1c0,0.3,0.2,0.6,0.4,0.8c0.2,0.2,0.5,0.3,0.9,0.3
		c0.2,0,0.5,0,0.7-0.1c0.2-0.1,0.4-0.2,0.5-0.4l0.1-0.1l0.4,0.4l-0.1,0.1c-0.2,0.2-0.4,0.4-0.7,0.5
		C195.8,97.3,195.5,97.3,195.2,97.3 M193.9,95.1h2.5c0-0.2-0.1-0.3-0.2-0.5c-0.1-0.2-0.2-0.3-0.4-0.4c-0.2-0.1-0.4-0.1-0.7-0.1
		c-0.4,0-0.6,0.1-0.9,0.3C194.1,94.6,194,94.8,193.9,95.1"/>
	<rect x="160.6" y="92.9" clip-path="url(#SVGID_2_)" fill="#8000ff" width="0.6" height="4.4"/>
</g>
</svg>