<?xml version="1.0" encoding="utf-8"?>
<svg xmlns="http://www.w3.org/2000/svg" width="230" height="230" viewBox="0 0 230 230" fill="none">
<g clip-path="url(#clip0_1316_2269)">
<path d="M115 230C178.513 230 230 178.513 230 115C230 51.4873 178.513 0 115 0C51.4873 0 0 51.4873 0 115C0 178.513 51.4873 230 115 230Z" fill="#4377F0"/>
<path d="M179.03 68.3099C171.368 72.822 162.992 77.6908 153.638 78.1206C149.946 78.2908 146.09 77.7071 142.592 76.6206C140.221 75.8828 137.604 74.6828 136.432 72.5139C133.48 67.0532 140.208 60.7898 144.782 58.329C150.135 55.4426 156.374 54.1534 162.41 53.1156C170.258 51.7656 177.805 52.8116 185.565 54.1859C186.587 54.3683 189.076 52.1913 188.477 51.2346C182.564 41.8293 172.694 35.3186 161.212 32.87C155.374 31.6255 149.315 31.4471 143.38 32.1403C139.212 32.6268 135.533 33.6727 132.33 36.2632C125.84 41.5172 123.98 49.7467 123.28 57.3236C122.328 67.6248 123.222 78.0233 124.046 88.3042C124.456 93.4041 124.416 98.7229 125.284 103.77C125.923 107.496 128.316 110.447 131.396 112.819C134.083 114.886 137.37 116.552 139.455 119.204C141.856 122.256 141.261 126.858 138.679 129.703C135.63 133.064 129.246 133.279 124.901 133.376C119.385 133.498 113.868 133.157 108.347 133.214C104.999 133.247 101.293 133.182 98.3762 131.475C96.129 130.162 94.4503 127.539 94.9218 125.029C95.4373 122.293 99.654 124.883 100.751 125.917C102.694 127.741 104.007 130.222 104.443 132.74C104.95 135.687 104.924 138.861 105.043 141.845C105.157 144.687 105.144 147.573 104.457 150.358C103.915 152.564 102.954 154.793 100.808 156.054C97.3804 158.065 92.7848 158.215 88.8589 158.049C85.757 157.915 82.6815 157.489 79.6369 156.95C78.716 156.788 75.9666 159.042 76.7244 159.902C83.9461 168.054 95.5959 172.789 106.558 174.909C117.292 176.989 129.32 176.717 138.441 170.499C138.838 170.231 140.45 168.808 139.873 168.188C132.696 160.473 120.204 168.472 117.001 175.631C111.718 187.436 120.063 200.413 114.727 212.117C115.582 211.399 116.432 210.686 117.287 209.968C96.7107 212.048 76.6363 204.236 61.4792 191.762C46.5513 179.474 34.2582 163.684 28.2879 145.984C22.7802 129.651 21.2821 111.797 23.9082 94.8716C26.4153 78.7206 33.1919 63.283 46.9258 52.4913C61.6335 40.9334 82.1264 35.347 100.927 40.8645C102.038 41.1888 104.747 38.1524 103.633 37.824C86.4179 32.7727 67.7668 37.0254 53.1208 46.2076C37.8932 55.7547 27.5785 69.8626 22.952 86.2001C18.0392 103.543 18.3256 122.374 22.5026 139.818C27.0101 158.641 37.6289 175.408 52.1955 189.179C68.7273 204.812 90.9254 215.409 115.159 212.96C116.133 212.863 117.371 211.574 117.719 210.811C122.209 200.968 117.631 190.732 118.508 180.569C118.9 175.996 120.389 171.062 125.333 169.128C129.25 167.596 133.885 167.965 136.749 171.046C137.225 170.276 137.705 169.505 138.181 168.735C129.752 174.484 117.173 173.628 107.563 171.512C97.2923 169.25 86.6338 164.701 79.8352 157.027C78.8658 158.012 77.8965 158.997 76.9227 159.979C85.9905 161.58 97.1381 162.537 103.866 155.466C108.4 150.703 108.607 144.265 108.286 138.257C108.101 134.73 108.316 130.733 106.871 127.429C105.179 123.566 100.905 119.021 96.0409 121.677C91.2867 124.271 89.8723 130.145 94.3181 133.701C99.134 137.552 107.215 136.141 113.088 136.291C123.222 136.551 135.784 137.374 141.896 128.236C144.072 124.981 145.301 120.631 143.129 117.124C141.261 114.112 137.657 112.32 134.824 110.183C131.096 107.374 128.739 104.09 128.404 99.5823C127.981 93.8338 127.518 88.0934 127.073 82.3448C126.245 71.5774 125.245 60.3885 127.316 49.69C128.051 45.8874 129.175 41.6064 131.986 38.6024C135 35.3794 140.256 35.0713 144.544 34.8403C157.484 34.1389 170.65 38.1159 179.625 46.9211C181.841 49.0981 183.732 51.5102 185.353 54.0886C186.323 53.1034 187.292 52.1183 188.266 51.1373C180.506 49.763 172.923 48.7292 165.067 50.0184C157.973 51.1819 150.787 52.8399 144.627 56.4034C138.948 59.6912 132.277 65.9424 132.524 72.6396C132.757 79.0084 142.178 80.6746 147.522 81.0962C158.855 81.9921 169.275 76.0206 178.418 70.6369C179.013 70.2883 180.44 69.2423 180.348 68.4924C180.264 67.7302 179.674 67.9329 179.03 68.3099Z" fill="black"/>
<path d="M151.016 156.586C141.195 156.716 131.373 156.846 121.552 156.971C116.785 157.032 112.022 157.097 107.254 157.158C104.263 157.198 101.337 157.381 98.3892 156.85C95.8072 156.384 93.256 155.731 90.771 154.944C88.4446 154.211 85.8449 153.404 83.9239 151.936C83.4921 151.604 83.1176 150.708 82.7959 150.501C82.2407 151.081 81.6856 151.657 81.1304 152.236C81.2317 152.216 81.3331 152.196 81.4344 152.176C81.6106 152.216 82.0557 152.107 82.2539 152.094C83.0515 152.042 83.8578 152.07 84.6553 152.07C88.1141 152.078 91.5993 151.997 94.8863 150.899C96.7765 150.27 98.4729 149.423 100.478 149.095C102.668 148.734 104.915 148.799 107.105 149.139C111.634 149.84 115.811 151.726 119.393 154.344C119.851 154.677 120.764 154.04 121.076 153.789C125.447 150.303 131.25 148.62 137.013 148.859C142.728 149.095 147.319 152.005 152.8 153.039C154.51 153.359 156.215 153.44 157.951 153.534C158.343 153.554 158.978 153.501 159.339 153.68C159.515 153.769 159.841 154.166 159.934 154.194C159.969 154.28 159.982 154.365 159.978 154.454C159.965 154.75 160.106 154.596 160.401 153.992C160.203 154.016 159.626 154.466 159.463 154.551C158.573 155.017 157.594 155.382 156.634 155.694C154.951 156.242 152.994 156.817 151.188 156.631C149.945 156.501 147.526 159.57 148.482 159.671C151.963 160.032 156.14 158.423 159.044 156.789C160.463 155.99 165.107 152.711 162.705 150.911C161.992 150.376 160.723 150.497 159.881 150.461C157.806 150.372 155.779 150.12 153.774 149.609C150.901 148.876 148.315 147.497 145.473 146.707C142.772 145.957 139.935 145.689 137.119 145.835C131.083 146.155 125.381 148.393 120.83 152.03C121.389 151.843 121.953 151.661 122.513 151.474C116.159 146.832 107.294 144.177 99.4114 146.93C97.411 147.627 95.6089 148.43 93.4675 148.738C91.357 149.046 89.2288 149.034 87.0963 149.03C84.3997 149.03 81.9808 149.05 80.2271 151.227C76.993 155.228 86.8936 157.665 89.5108 158.419C92.1457 159.181 94.8819 159.886 97.6357 160.186C101.998 160.661 106.655 160.17 111.044 160.109C123.464 159.947 135.885 159.785 148.306 159.619C149.214 159.607 150.082 158.828 150.615 158.216C150.765 158.054 151.844 156.574 151.016 156.586Z" fill="black"/>
<path d="M142.473 81.8879C141.39 84.1054 140.306 86.323 139.222 88.5405C138.874 89.254 139.275 89.5378 140.015 89.2702C140.896 88.9499 141.83 88.0337 142.218 87.2432C143.302 85.0257 144.386 82.8082 145.47 80.5906C145.818 79.8771 145.417 79.5934 144.677 79.8609C143.795 80.1812 142.857 81.0974 142.473 81.8879Z" fill="black"/>
<path d="M153.762 83.0973C153.762 85.8702 153.762 88.6431 153.762 91.4161C153.762 92.1985 155.357 91.185 155.542 91.0512C156.194 90.5728 157.066 89.762 157.066 88.9269C157.066 86.154 157.066 83.3811 157.066 80.6082C157.066 79.8257 155.471 80.8392 155.286 80.973C154.639 81.4514 153.762 82.2622 153.762 83.0973Z" fill="black"/>
<path d="M165.257 79.0646C167.513 82.2997 169.768 85.5348 172.029 88.7739C172.518 89.4752 175.853 86.9212 175.144 85.9077C172.888 82.6727 170.632 79.4376 168.372 76.1984C167.887 75.4971 164.552 78.0471 165.257 79.0646Z" fill="black"/>
<path d="M175.194 73.9687C177.701 77.301 181.296 79.6118 185.522 80.7104C186.659 81.0064 189.32 77.9537 188.227 77.6699C184.134 76.6078 180.724 74.3132 178.309 71.1025C177.771 70.389 174.462 72.9957 175.194 73.9687Z" fill="black"/>
<path d="M50.5564 75.469C66.1805 84.927 87.1405 83.6581 101.87 73.3366C103.324 72.315 104.016 69.8989 101.619 71.5813C87.9864 81.1365 67.8328 81.177 53.6759 72.6029C52.5964 71.9502 49.7765 74.9947 50.5564 75.469Z" fill="black"/>
<path d="M58.29 80.4954C57.9507 82.3481 57.1356 83.7061 55.2277 84.4602C54.3421 84.8088 53.3903 85.6642 53.0246 86.4872C52.7118 87.1885 53.0202 87.5331 53.8177 87.2169C57.6158 85.7169 60.8499 82.34 61.5461 78.5414C61.7047 77.6738 60.6561 78.1035 60.2199 78.3508C59.4884 78.7643 58.4398 79.6562 58.29 80.4954Z" fill="black"/>
<path d="M66.2778 82.4987C66.0354 84.9392 65.7975 87.3797 65.5551 89.8202C65.4714 90.6675 66.3923 90.2864 66.8814 90.0108C67.5599 89.6256 68.732 88.677 68.8113 87.8662C69.0536 85.4257 69.2915 82.9852 69.5339 80.5447C69.6176 79.6974 68.6967 80.0785 68.2076 80.3542C67.5291 80.7352 66.3571 81.6839 66.2778 82.4987Z" fill="black"/>
<path d="M77.2675 83.7951C77.7478 86.1221 78.2325 88.4531 78.7127 90.7801C78.9066 91.7085 82.2465 89.4139 82.0173 88.291C81.5371 85.964 81.0524 83.6329 80.5721 81.306C80.3783 80.3776 77.034 82.6722 77.2675 83.7951Z" fill="black"/>
<path d="M89.3968 80.4382C90.3618 82.4327 91.3267 84.4313 92.2916 86.4259C92.7983 87.4718 96.0457 84.8732 95.5962 83.9367C94.6313 81.9422 93.6664 79.9436 92.7014 77.949C92.1947 76.9031 88.943 79.5017 89.3968 80.4382Z" fill="black"/>
</g>
<defs>
<clipPath id="clip0_1316_2269">
<rect width="230" height="230" fill="white"/>
</clipPath>
</defs>
</svg>