<?xml version="1.0" encoding="utf-8"?>
<svg xmlns="http://www.w3.org/2000/svg" width="230" height="230" viewBox="0 0 230 230" fill="none">
<g clip-path="url(#clip0_1316_1816)">
<path d="M115 230C178.513 230 230 178.513 230 115C230 51.4873 178.513 0 115 0C51.4873 0 0 51.4873 0 115C0 178.513 51.4873 230 115 230Z" fill="#FFD766"/>
<path d="M54.6534 82.0745C67.7969 77.5868 85.6285 72.4058 96.8598 83.4529C101.314 87.8352 103.257 93.7662 104.218 99.5756C105.372 106.561 105.447 113.76 105.28 120.81C105.068 129.697 104.086 138.542 102.411 147.295C102.372 147.498 102.376 147.814 102.685 147.838C115.784 148.783 128.941 148.398 141.948 146.715C143.027 146.577 145.57 143.525 144.071 143.719C131.25 145.377 118.296 145.73 105.39 144.798C105.483 144.98 105.575 145.159 105.663 145.341C108.589 130.033 109.915 113.773 107.703 98.3026C106.853 92.3514 105.068 86.1772 100.816 81.4705C96.2517 76.4192 89.246 74.072 82.2578 73.8085C73.1548 73.4639 64.4527 76.4517 56.059 79.3178C55.0808 79.6503 52.5693 82.784 54.6534 82.0745Z" fill="black"/>
<path d="M188.05 54.8892C185.001 57.7351 180.075 57.4107 176.228 56.3729C171.906 55.2054 167.923 52.9189 164.623 50.1176C158.401 44.8393 152.973 37.8422 144.544 35.43C134.934 32.6814 126.611 38.7138 118.495 42.4475C108.427 47.0852 97.3409 46.2663 86.4622 45.5001C76.5308 44.7988 66.7535 44.665 57.0953 47.2312C48.3844 49.546 40.189 53.7135 33.853 59.7337C22.0578 70.9389 17.2507 90.1101 28.6978 103.059C35.0382 110.23 45.0754 113.895 54.857 114.839C67.4938 116.06 80.0777 112.95 92.1725 109.983C93.0273 109.772 95.4815 108.049 94.7942 107.052C88.5683 98.0154 77.2093 92.202 65.5198 92.502C53.8172 92.802 43.097 98.7613 36.4085 107.445C35.9635 108.025 35.8225 108.556 36.6156 108.665C37.3999 108.775 38.5808 107.364 38.9465 106.89C45.1195 98.8748 56.2626 94.7074 66.7844 95.6722C76.9537 96.6046 86.2242 102.005 91.6746 109.922C92.547 108.945 93.4195 107.968 94.2963 106.991C75.4953 111.608 52.5658 116.652 35.9459 104.015C21.7934 93.256 22.657 72.4875 34.9721 60.7634C41.4271 54.6175 50.279 50.9811 59.2675 49.2379C69.1461 47.3244 78.9717 48.269 88.9384 48.8893C98.9139 49.5095 108.66 49.1974 117.715 44.9042C125.871 41.0367 134.035 35.3449 143.561 39.0421C152.744 42.6056 157.767 51.2973 165.944 56.1418C173.281 60.4877 182.503 62.1296 189.169 55.9148C189.5 55.6067 190.698 54.4554 190.165 53.9648C189.649 53.4946 188.327 54.6297 188.05 54.8892Z" fill="black"/>
<path d="M55.8308 99.8508C53.6277 107.197 62.9908 113.837 70.0538 109.71C75.6716 106.426 78.9409 98.0063 73.116 93.4739C72.1996 92.7604 69.1902 95.7076 70.0009 96.3401C73.1337 98.7765 74.7287 106.224 69.6881 107.772C63.6913 109.613 57.5183 103.13 59.0869 97.9008C59.3557 97.013 58.1264 97.5157 57.7607 97.7103C56.9544 98.1319 56.0863 99.0076 55.8308 99.8508Z" fill="black"/>
<path d="M173.61 104.2C160.053 110.439 143.366 109.556 130.584 102.1C130.382 102.615 130.183 103.134 129.981 103.649C136.731 95.7071 147.53 91.1302 158.462 91.2275C169.389 91.3248 179.876 95.9017 187.053 103.434C187.754 104.172 190.962 101.399 190.168 100.568C182.127 92.1315 169.922 87.4127 157.73 88.3046C146.054 89.16 135.233 94.9855 128.068 103.414C127.91 103.6 126.989 104.687 127.465 104.962C140.824 112.754 158.07 113.455 172.196 106.953C173.033 106.568 174.099 105.777 174.399 104.926C174.637 104.281 174.461 103.811 173.61 104.2Z" fill="black"/>
<path d="M145.6 94.7939C143.754 102.545 152.307 110.454 160.749 107.613C167.984 105.176 173.284 96.7033 169.636 90.0061C169.288 89.3656 165.904 91.7453 166.521 92.8723C169.292 97.96 166.318 105.354 159.436 105.176C152.91 105.01 147.464 98.6978 148.857 92.8358C149.068 91.952 147.931 92.4344 147.53 92.6452C146.759 93.0547 145.799 93.9628 145.6 94.7939Z" fill="black"/>
<path d="M38.3987 109.504C31.0493 120.798 30.5117 134.651 35.5655 146.841C40.7119 159.255 51.4364 168.83 64.0688 174.939C78.283 181.811 94.3257 184.272 110.263 184.142C118.96 184.069 127.636 183.282 136.237 182.147C142.731 181.292 150.358 180.655 153.949 174.793C157.329 169.276 151.738 163.118 145.684 162.206C137.73 161.006 130.425 167.208 125.072 171.708C125.807 171.465 126.548 171.222 127.284 170.979C124.591 164.764 117.171 162.019 110.258 162.854C102.592 163.783 96.3745 169.544 94.4975 176.322C92.4311 183.789 95.3699 191.974 101.913 196.774C108.888 201.89 118.608 203.147 127.129 201.221C137.735 198.821 146.604 192.084 153.403 184.462C153.734 184.089 154.522 183.153 153.8 182.824C153.148 182.528 151.795 183.891 151.491 184.227C146.221 190.138 139.59 195.217 131.588 197.609C124.199 199.815 115.731 199.551 108.791 196.17C102.221 192.971 97.8198 187.207 97.2205 180.343C96.6653 173.958 99.5381 167.452 106.861 166.045C113.492 164.772 121.348 167.403 123.979 173.468C124.349 174.323 125.874 173.006 126.191 172.738C130.8 168.862 137.012 163.819 143.811 165.408C146.477 166.033 148.935 167.703 150.411 169.839C151.742 171.769 152.636 175.073 150.187 176.61C147.635 178.207 143.82 178.397 140.868 178.811C136.964 179.358 133.047 179.837 129.121 180.218C121.243 180.98 113.307 181.324 105.389 180.972C79.8075 179.837 51.5157 169.88 40.1391 147.137C34.182 135.231 33.4594 120.442 40.9366 108.949C42.3906 106.715 39.0508 108.503 38.3987 109.504Z" fill="black"/>
</g>
<defs>
<clipPath id="clip0_1316_1816">
<rect width="230" height="230" fill="white"/>
</clipPath>
</defs>
</svg>