<svg width="60" height="24" viewBox="0 0 60 24" fill="none" xmlns="http://www.w3.org/2000/svg">
  <path d="M8.5 2.5H51.5C52.6 2.5 53.5 3.4 53.5 4.5V19.5C53.5 20.6 52.6 21.5 51.5 21.5H8.5C7.4 21.5 6.5 20.6 6.5 19.5V4.5C6.5 3.4 7.4 2.5 8.5 2.5Z" fill="#635BFF"/>
  <path d="M15 8.5C15 7.1 16.1 6 17.5 6H22.5C25.5 6 28 8.5 28 11.5C28 14.5 25.5 17 22.5 17H17.5C16.1 17 15 15.9 15 14.5V8.5Z" fill="white"/>
  <path d="M32 6H35.5C38.5 6 41 8.5 41 11.5C41 14.5 38.5 17 35.5 17H32V6Z" fill="white"/>
  <path d="M43 6H46.5V17H43V6Z" fill="white"/>
</svg>
